<svg xmlns="http://www.w3.org/2000/svg" width="606" height="625" viewBox="0 0 606 625" version="1.1"><path d="M 186 37.565 C 131.029 45.283, 86.507 79.283, 66.757 128.628 C 62.117 140.220, 57.414 158.773, 56.016 171 C 55.271 177.510, 55.067 214.811, 55.366 289.500 C 55.751 385.555, 55.999 399.487, 57.452 406.811 C 63.651 438.066, 79.243 466.760, 101.446 487.777 C 127.753 512.679, 161.223 526.335, 199 527.579 C 208.075 527.878, 216.467 528.317, 217.650 528.555 C 220.155 529.059, 220.654 529.530, 262.128 570.508 C 290.633 598.673, 294.268 601.928, 298.946 603.482 C 306.082 605.852, 311.123 604.911, 319.056 599.727 C 323.004 597.147, 338.575 582.653, 359.297 562.266 C 377.887 543.977, 394.088 528.794, 395.299 528.526 C 396.509 528.258, 406.050 527.618, 416.500 527.103 C 432.634 526.309, 437.299 525.697, 447.425 523.046 C 467.644 517.752, 481.071 511.592, 496.419 500.568 C 524.901 480.110, 544.820 449.663, 554.690 411.500 C 556.387 404.936, 556.500 397.118, 556.500 286 L 556.500 167.500 554.252 157.352 C 548.484 131.316, 537.526 108.499, 521.667 89.500 C 503.150 67.317, 472.084 48.463, 442.571 41.496 C 423.624 37.024, 418.027 36.819, 304.500 36.446 C 213.357 36.146, 194.861 36.321, 186 37.565 M 204.887 77.446 C 204.668 77.665, 201.341 77.957, 197.494 78.095 C 193.648 78.233, 188.925 78.681, 187 79.092 C 185.075 79.502, 180.800 80.430, 177.500 81.153 C 174.200 81.877, 171.162 82.363, 170.750 82.234 C 170.338 82.106, 170 82.450, 170 83 C 170 83.550, 169.127 84, 168.059 84 C 166.991 84, 165.840 84.450, 165.500 85 C 165.160 85.550, 163.784 86, 162.441 86 C 161.098 86, 160 86.450, 160 87 C 160 87.550, 159.190 88, 158.200 88 C 157.210 88, 155.972 88.408, 155.450 88.906 C 154.927 89.404, 152.874 90.712, 150.887 91.812 C 143.912 95.673, 142.592 96.517, 140.424 98.500 C 139.222 99.600, 136.786 101.625, 135.011 103 C 130.296 106.654, 124.853 112.563, 118.890 120.500 C 115.998 124.350, 113.152 127.831, 112.566 128.235 C 111.980 128.639, 111.893 128.976, 112.372 128.985 C 112.852 128.993, 112.669 129.694, 111.965 130.542 C 110.378 132.454, 106 141.024, 106 142.218 C 106 142.701, 105.100 144.959, 104 147.236 C 102.900 149.513, 102 152.101, 102 152.988 C 102 153.875, 101.619 155.028, 101.154 155.550 C 100.688 156.073, 99.676 159.875, 98.904 164 C 97.751 170.156, 97.500 191.654, 97.500 284 L 97.500 396.500 99.877 405.500 C 101.184 410.450, 102.647 414.928, 103.127 415.450 C 103.607 415.973, 104 417.008, 104 417.752 C 104 421.782, 116.540 443.052, 123.500 450.826 C 125.150 452.670, 126.922 454.925, 127.437 455.839 C 127.953 456.752, 129.501 458.400, 130.877 459.500 C 140.051 466.832, 147.111 471.938, 151 474.053 C 153.475 475.399, 155.725 476.725, 156 477 C 156.275 477.275, 157.079 477.618, 157.787 477.762 C 158.496 477.907, 160.971 478.888, 163.287 479.944 C 176.532 485.977, 188.140 488, 209.515 488 C 226.177 488, 236 489.157, 236 491.119 C 236 491.603, 236.710 492, 237.578 492 C 238.447 492, 240.942 493.803, 243.123 496.006 C 245.305 498.210, 248.195 500.737, 249.545 501.621 C 250.895 502.506, 252 503.536, 252 503.910 C 252 504.285, 263.884 516.646, 278.409 531.379 C 308.871 562.279, 304.922 560.540, 316.410 548.117 C 324.811 539.033, 367.622 496.216, 370.692 493.828 C 371.874 492.908, 373.728 491.681, 374.812 491.101 C 377.831 489.485, 393.107 488.017, 407 488.008 C 414.706 488.003, 422.186 487.397, 426.500 486.427 C 430.350 485.562, 435.075 484.498, 437 484.062 C 438.925 483.626, 442.863 482.315, 445.750 481.149 C 448.637 479.983, 451 479.280, 451 479.586 C 451 479.892, 451.729 479.414, 452.621 478.522 C 453.512 477.631, 455.537 476.643, 457.121 476.326 C 458.704 476.009, 460 475.387, 460 474.942 C 460 474.498, 460.890 473.852, 461.977 473.507 C 463.065 473.162, 465.878 471.328, 468.227 469.433 C 470.577 467.537, 472.950 465.652, 473.501 465.243 C 482.264 458.739, 482.396 458.591, 495.209 441 C 497.012 438.525, 498.715 436.275, 498.994 436 C 499.996 435.010, 508 418.246, 508 417.136 C 508 416.511, 508.401 416, 508.891 416 C 509.380 416, 510.009 414.537, 510.287 412.750 C 510.565 410.962, 511.498 407.025, 512.360 404 C 515.646 392.463, 515.984 380.841, 515.972 279.500 C 515.960 176.006, 515.926 174.915, 512.152 159 C 509.607 148.268, 502.118 131.400, 497.750 126.561 C 496.788 125.495, 496 124.246, 496 123.786 C 496 123.005, 489.505 115.559, 479.566 104.948 C 477.221 102.444, 472.784 98.723, 469.705 96.680 C 466.626 94.636, 463.520 92.410, 462.803 91.732 C 460.031 89.111, 446.250 82.601, 439.540 80.743 C 433.403 79.043, 427.431 78.686, 393 77.967 C 352.836 77.127, 205.614 76.720, 204.887 77.446 M 412.500 100.017 C 404.296 101.368, 401.808 102.173, 396.031 105.344 C 389.102 109.146, 388.852 109.339, 382.096 116.096 C 375.186 123.005, 374.650 123.693, 371.019 130.308 C 368.518 134.865, 367.973 137.252, 367.284 146.642 C 366.758 153.819, 366.862 159.873, 367.584 164.069 C 368.746 170.818, 373.768 184, 375.177 184 C 375.630 184, 376 184.590, 376 185.311 C 376 186.033, 376.800 187.495, 377.777 188.561 C 378.755 189.628, 380.510 191.857, 381.679 193.516 C 384.571 197.622, 393.403 203.542, 402.205 207.275 C 408.666 210.015, 410.644 210.376, 419.500 210.434 C 431.483 210.513, 440.749 207.901, 450.235 201.769 C 460.796 194.944, 469.976 183.662, 472.882 173.939 C 473.611 171.498, 474.611 168.466, 475.104 167.203 C 475.597 165.940, 476 160.323, 476 154.722 C 476 145.366, 475.705 143.794, 472.371 135.370 C 470.375 130.327, 467.675 125.051, 466.371 123.644 C 465.067 122.238, 464 120.669, 464 120.159 C 464 119.648, 462.988 118.523, 461.750 117.658 C 460.512 116.793, 457.475 114.231, 455 111.963 C 445.223 103.007, 426.427 97.723, 412.500 100.017 M 414.557 124.223 C 413.549 125.661, 413 128.659, 413 132.723 L 413 139 407.500 139 C 402.202 139, 401.995 139.101, 401.855 141.750 C 401.315 151.950, 402.865 154.254, 409.639 153.326 L 414 152.728 414.014 156.614 C 414.041 164.268, 414.614 165, 420.581 165 C 427.075 165, 428.553 163.170, 427.535 156.386 C 426.919 152.277, 427.024 152, 429.195 152 C 430.470 152, 432.927 152.406, 434.655 152.901 C 439.020 154.153, 440 152.769, 440 145.348 L 440 139.095 433.750 138.798 L 427.500 138.500 426.925 131.813 C 426.609 128.136, 425.766 124.423, 425.053 123.563 C 423.014 121.107, 416.450 121.519, 414.557 124.223 M 389.280 129.009 C 386.209 130.260, 385.633 133.536, 386.319 145.861 C 386.912 156.518, 389.502 168.344, 392.409 173.663 C 399.138 185.976, 416.740 192.229, 431.930 187.704 C 436.143 186.448, 438.726 184.732, 443.462 180.038 C 447.318 176.216, 449.642 173.060, 449.774 171.464 C 449.889 170.076, 450.924 167.041, 452.075 164.720 C 453.472 161.901, 454.423 157.345, 454.939 151 C 456.343 133.732, 455.196 129.963, 448.559 130.032 C 443.382 130.086, 441.987 131.938, 442.100 138.610 C 442.155 141.850, 442.512 145.625, 442.895 147 C 443.719 149.961, 442.273 162.086, 440.933 163.450 C 440.420 163.973, 440 165.210, 440 166.200 C 440 167.190, 439.550 168, 439 168 C 438.450 168, 438 168.635, 438 169.411 C 438 171.342, 432.290 176, 429.923 176 C 428.865 176, 428 176.382, 428 176.850 C 428 177.317, 424.512 177.723, 420.250 177.751 L 412.500 177.802 407.428 172.651 C 401.786 166.921, 400.762 164.708, 398.963 154.365 C 398 148.828, 397.983 145.482, 398.884 139.423 C 399.809 133.204, 399.786 131.371, 398.772 130.409 C 396.964 128.692, 391.893 127.944, 389.280 129.009 M 296 142.020 C 285.584 142.886, 266.449 147.151, 264.576 149.024 C 264.039 149.561, 262.790 150, 261.800 150 C 260.810 150, 260 150.375, 260 150.833 C 260 151.292, 259.340 151.667, 258.534 151.667 C 256.503 151.667, 244 158.104, 244 159.150 C 244 159.617, 243.100 160, 242 160 C 240.900 160, 240 160.450, 240 161 C 240 161.550, 239.410 162, 238.689 162 C 237.967 162, 236.499 162.818, 235.427 163.817 C 234.354 164.816, 232.729 166.054, 231.816 166.567 C 224.754 170.536, 206.410 188.954, 202.616 195.885 C 202.130 196.773, 200.680 198.637, 199.393 200.027 C 192.983 206.950, 183.276 229.547, 179.429 246.500 C 176.659 258.710, 176.882 287.721, 179.861 302.500 C 182.491 315.549, 183.374 318.492, 187.144 326.775 C 188.715 330.226, 190 333.258, 190 333.511 C 190 334.408, 199.986 350.609, 201.730 352.541 C 202.703 353.619, 204.844 356.301, 206.487 358.501 C 209.982 363.179, 220.567 373.693, 227 378.875 C 229.475 380.869, 231.650 382.837, 231.833 383.250 C 232.017 383.662, 232.604 384, 233.138 384 C 233.673 384, 236.673 385.710, 239.805 387.801 C 261.747 402.443, 290.691 409.512, 318.304 406.972 C 324.969 406.359, 330.702 405.684, 331.045 405.472 C 331.388 405.260, 333.150 404.826, 334.962 404.507 C 341.544 403.347, 364 394.317, 364 392.829 C 364 392.373, 364.900 392, 366 392 C 367.100 392, 368 391.550, 368 391 C 368 390.450, 368.563 389.999, 369.250 389.999 C 369.938 389.998, 371.793 388.886, 373.372 387.527 C 374.952 386.169, 377.090 384.789, 378.122 384.461 C 379.155 384.133, 380 383.446, 380 382.933 C 380 382.420, 380.625 382, 381.388 382 C 382.915 382, 406 359.323, 406 357.823 C 406 357.311, 407.348 355.453, 408.995 353.696 C 410.643 351.938, 411.993 350.085, 411.995 349.579 C 411.998 349.072, 412.624 347.947, 413.386 347.079 C 416.256 343.811, 426.061 323.546, 428.816 315.189 C 433.319 301.528, 434.010 297.704, 434.603 283.148 C 435.144 269.866, 434.105 254.384, 432.025 244.750 C 431.461 242.137, 430.636 238.071, 430.191 235.713 C 429.746 233.356, 429.089 230.953, 428.731 230.374 C 428.352 229.761, 424.182 229.316, 418.736 229.308 C 413.597 229.300, 406.941 228.721, 403.946 228.021 C 397.677 226.557, 382.203 219.198, 378.877 216.100 C 377.637 214.945, 376.186 214, 375.653 214 C 375.119 214, 371.787 210.974, 368.249 207.276 C 363.416 202.224, 360.618 198.059, 356.996 190.526 C 350.769 177.575, 348.846 170.119, 348.104 156.052 L 347.500 144.605 340.500 143.348 C 330.914 141.628, 308.694 140.964, 296 142.020 M 295.500 191.956 C 287.966 192.411, 285.955 192.907, 283.153 195 C 277.384 199.308, 277 200.953, 277 221.379 C 277 235.949, 276.702 240.155, 275.590 241.268 C 274.505 242.352, 269.193 242.822, 252.611 243.302 C 228.872 243.990, 227.077 244.410, 222.551 250.344 C 220.054 253.619, 219.994 254.085, 219.749 272.095 C 219.556 286.365, 219.826 291.286, 220.953 294 C 222.443 297.590, 227.314 302.889, 229.356 303.142 C 229.985 303.219, 240.474 303.332, 252.665 303.392 C 264.855 303.451, 275.205 303.874, 275.665 304.330 C 276.124 304.787, 276.725 314.992, 277 327.008 C 277.459 347.076, 277.668 349.081, 279.562 351.616 C 284.152 357.761, 284.789 357.919, 305.727 358.101 L 324.954 358.269 329.363 354.884 C 335.240 350.373, 336 346.726, 336 323.040 C 336 304.329, 336.012 304.231, 338.250 303.808 C 339.488 303.574, 349.920 303.292, 361.432 303.181 C 378.367 303.019, 382.679 302.696, 384.011 301.490 C 384.917 300.671, 385.980 300, 386.374 300 C 387.956 300, 391.794 295.153, 392.924 291.730 C 394.338 287.446, 393.370 254.762, 391.733 251.500 C 390.234 248.514, 387.364 246.050, 383.509 244.439 C 380.905 243.351, 375.229 243, 360.255 243 C 344.246 243, 340.033 242.712, 338.299 241.497 C 336.252 240.063, 336.138 239.109, 335.826 220.747 C 335.466 199.509, 334.844 197.111, 328.762 193.519 C 325.484 191.582, 312.099 190.953, 295.500 191.956 M 397.541 234.067 C 397.904 234.653, 397.411 235.710, 396.447 236.415 C 394.195 238.062, 395.231 239.683, 399.286 240.855 C 401.054 241.365, 403.400 242.094, 404.500 242.473 C 406.472 243.154, 406.473 243.141, 404.559 241.582 C 402.327 239.763, 404.086 239.440, 407.186 241.100 C 408.440 241.771, 408.997 241.804, 408.614 241.185 C 408.270 240.627, 408.553 239.907, 409.244 239.585 C 410.247 239.118, 410.248 238.882, 409.250 238.417 C 408.563 238.096, 408 237.030, 408 236.048 C 408 234.761, 406.952 234.088, 404.250 233.642 C 398.747 232.732, 396.793 232.856, 397.541 234.067 M 399.262 238.690 C 400.192 239.620, 401.288 240.046, 401.697 239.636 C 402.107 239.226, 401.780 238.473, 400.971 237.961 C 398.536 236.421, 397.455 236.883, 399.262 238.690 M 420.604 400.034 C 417.279 401.034, 412 405.738, 412 407.701 C 412 408.430, 411.486 409.849, 410.859 410.854 C 409.473 413.074, 410.470 419.327, 412.539 421.396 C 413.343 422.200, 414 423.111, 414 423.421 C 414 424.940, 418.600 428.967, 422.178 430.580 C 426.151 432.372, 426.246 432.366, 430.535 430.091 C 436.370 426.995, 440 421.388, 440 415.472 C 440 404.630, 430.489 397.060, 420.604 400.034" stroke="none" fill="#f9faf0" fill-rule="evenodd"/><path d="M 194.500 78.687 C 150.112 84.426, 117.510 110.552, 103.016 152 C 97.415 168.015, 97.643 162.999, 97.353 277 C 97.120 368.665, 97.292 384.008, 98.665 394 C 102.614 422.735, 117.887 449.217, 140.215 466.041 C 150.088 473.481, 159.039 478.068, 172.340 482.505 C 185.029 486.738, 195.002 488, 215.756 488 C 228.107 488, 232.950 488.370, 235.713 489.525 C 239.204 490.983, 279.685 530.629, 296.697 549.250 C 300.591 553.513, 304.591 557, 305.585 557 C 306.596 557, 311.813 552.259, 317.415 546.250 C 331.191 531.472, 364.467 498.508, 370.229 493.931 C 376.290 489.117, 380.478 488.257, 401.542 487.503 C 421.308 486.794, 428.178 485.856, 439.341 482.340 C 456.712 476.869, 471.404 467.928, 483.127 455.696 C 493.449 444.925, 505.439 424.790, 509.742 411 C 514.698 395.120, 514.500 400.472, 514.500 282.500 L 514.500 171.500 512.193 162 C 506.714 139.433, 498.476 125.224, 480.597 107.500 C 467.718 94.734, 455.158 86.435, 442.531 82.351 C 435.058 79.933, 432.625 79.697, 407.500 78.942 C 380.965 78.144, 200.370 77.929, 194.500 78.687 M 406.754 100.084 C 392.564 103.429, 376.154 117.685, 369.326 132.599 C 366.225 139.373, 364.957 157.335, 366.962 166.081 C 370.840 182.991, 383.090 198.937, 397.216 205.464 C 407.825 210.366, 412.692 211.349, 423.308 210.734 C 435.989 210, 444.339 207.150, 453.082 200.573 C 461.880 193.955, 466.953 187.914, 471.499 178.644 C 475.473 170.541, 477.005 163.692, 476.988 154.114 C 476.944 129.599, 458.629 107.015, 433.540 100.539 C 427.119 98.881, 412.882 98.639, 406.754 100.084 M 415.441 123.425 C 413.794 124.633, 413.535 125.914, 413.732 131.875 L 413.964 138.901 408.232 139.201 L 402.500 139.500 402.500 145.500 L 402.500 151.500 408.703 151.797 L 414.907 152.093 415.203 158.297 L 415.500 164.500 419.824 164.811 C 426.009 165.256, 427.299 163.815, 426.807 157.010 L 426.404 151.439 431.952 152.090 C 435.003 152.448, 437.924 152.353, 438.442 151.879 C 439.374 151.026, 439.284 140.959, 438.336 140.006 C 438.066 139.734, 435.292 139.284, 432.172 139.006 L 426.500 138.500 426.667 135 C 426.928 129.550, 426.065 125.208, 424.389 123.532 C 422.466 121.608, 417.989 121.555, 415.441 123.425 M 388.200 130.200 C 387.408 130.992, 387 135.250, 387 142.726 C 387 154.722, 389.339 166.746, 393.127 174.222 C 395.808 179.514, 404.212 185.503, 411.644 187.417 C 424.264 190.668, 434.298 188.457, 442.674 180.580 C 450.384 173.330, 452.921 166.047, 454.191 147.520 C 455.132 133.786, 455.110 133.508, 452.964 131.770 C 450.060 129.418, 446.469 129.531, 443.947 132.053 C 442.179 133.821, 442.005 134.759, 442.697 138.803 C 444.268 147.988, 443.561 160.074, 441.136 165.488 C 436.721 175.346, 432.123 178.078, 419.805 178.158 C 411.844 178.211, 411.778 178.190, 407.815 174.355 C 399.942 166.738, 397.355 157.551, 398.456 141.118 C 399.002 132.969, 398.865 130.530, 397.827 129.872 C 395.844 128.615, 389.571 128.829, 388.200 130.200 M 293.500 141.481 C 275.257 143.566, 266.483 146.257, 249 155.128 C 233.229 163.129, 215.126 177.923, 205.738 190.481 C 198.352 200.361, 194.075 206.933, 190.760 213.500 C 179.456 235.889, 174.937 259.426, 177.079 284.750 C 178.921 306.525, 181.754 317.543, 189.530 333.168 C 207.395 369.065, 239.571 395.140, 277.888 404.773 C 287.403 407.165, 290.360 407.443, 306.500 407.463 C 326.240 407.487, 333.448 406.347, 348.500 400.822 C 365.282 394.661, 378.961 385.863, 393.435 371.923 C 405.400 360.398, 413.669 349.222, 421.371 334.166 C 437.012 303.587, 439.875 274.805, 431.012 237.236 L 428.827 227.972 419.663 228.598 C 405.761 229.547, 394.201 225.920, 379.493 215.995 C 368.423 208.526, 358.866 196.275, 354.035 183.365 C 351.067 175.431, 348 159.105, 348 151.235 L 348 144.285 339.750 142.567 C 328.730 140.272, 308.274 139.792, 293.500 141.481 M 286.500 193.417 C 284.850 194.154, 282.302 196.049, 280.838 197.628 C 278.175 200.500, 278.175 200.502, 277.662 220.959 C 277.211 238.997, 276.941 241.570, 275.384 242.709 C 274.074 243.666, 268.224 244, 252.759 244 C 229.993 244, 228.990 244.205, 223.500 249.974 L 220.500 253.126 220.188 271.618 C 219.896 288.848, 220.022 290.414, 222.023 294.548 C 226.084 302.937, 226.805 303.138, 252.062 302.921 C 271.528 302.754, 274.359 302.930, 275.830 304.400 C 277.250 305.820, 277.575 309.240, 278 327.285 C 278.728 358.195, 278.549 358, 306.253 358 C 322.704 358, 323.894 357.871, 327.010 355.750 C 334.309 350.783, 334.466 350.197, 334.808 326.712 C 334.986 314.456, 335.540 305.055, 336.124 304.351 C 336.844 303.483, 343.491 303.045, 359.404 302.818 L 381.677 302.500 385.990 299.509 C 392.394 295.068, 393 292.757, 392.998 272.782 C 392.997 253.748, 392.254 250.665, 386.681 246.571 C 384.077 244.659, 382.109 244.462, 360.978 244 C 344.103 243.631, 337.754 243.159, 336.798 242.201 C 335.856 241.259, 335.363 235.362, 335 220.701 C 334.456 198.737, 334.107 197.255, 328.686 193.950 C 325.836 192.212, 323.601 192.011, 307.500 192.043 C 294.689 192.068, 288.635 192.464, 286.500 193.417 M 417.984 400.854 C 409.787 405.216, 407.708 416.344, 413.700 423.789 C 421.982 434.082, 430.591 434.479, 437.384 424.883 C 441.384 419.231, 441.828 413.757, 438.754 408 C 434.256 399.577, 425.832 396.678, 417.984 400.854 M 154 521.211 C 154.275 521.482, 156.065 522.232, 157.977 522.879 C 159.890 523.525, 161.015 523.624, 160.477 523.098 C 159.940 522.572, 158.150 521.821, 156.500 521.430 C 154.850 521.039, 153.725 520.940, 154 521.211 M 191.500 529 C 194.250 529.403, 196.928 529.343, 197.450 528.866 C 197.994 528.370, 195.860 528.057, 192.450 528.134 L 186.500 528.267 191.500 529 M 394.500 529.881 C 392.850 530.912, 389.925 533.498, 388 535.628 L 384.500 539.500 388.049 536.249 C 390.899 533.638, 391.848 533.244, 392.870 534.249 C 393.570 534.937, 394.039 535.050, 393.913 534.500 C 393.786 533.950, 394.035 532.693, 394.465 531.707 C 395.217 529.983, 395.328 529.983, 397.356 531.707 C 399.280 533.342, 399.346 533.346, 398.110 531.750 C 396.931 530.227, 396.998 529.983, 398.628 529.868 C 399.657 529.796, 405.675 529.424, 412 529.041 L 423.500 528.346 410.500 528.177 C 399.337 528.031, 397.076 528.272, 394.500 529.881 M 204.250 529.735 C 206.863 529.941, 211.137 529.941, 213.750 529.735 C 216.363 529.529, 214.225 529.360, 209 529.360 C 203.775 529.360, 201.637 529.529, 204.250 529.735 M 303.264 605.718 C 304.784 605.947, 307.034 605.941, 308.264 605.704 C 309.494 605.467, 308.250 605.279, 305.500 605.286 C 302.750 605.294, 301.744 605.488, 303.264 605.718" stroke="none" fill="#06a690" fill-rule="evenodd"/><path d="M 194.500 78.687 C 150.112 84.426, 117.510 110.552, 103.016 152 C 97.415 168.015, 97.643 162.999, 97.353 277 C 97.120 368.665, 97.292 384.008, 98.665 394 C 102.614 422.735, 117.887 449.217, 140.215 466.041 C 150.088 473.481, 159.039 478.068, 172.340 482.505 C 185.029 486.738, 195.002 488, 215.756 488 C 228.107 488, 232.950 488.370, 235.713 489.525 C 239.204 490.983, 279.685 530.629, 296.697 549.250 C 300.591 553.513, 304.591 557, 305.585 557 C 306.596 557, 311.813 552.259, 317.415 546.250 C 331.191 531.472, 364.467 498.508, 370.229 493.931 C 376.290 489.117, 380.478 488.257, 401.542 487.503 C 421.308 486.794, 428.178 485.856, 439.341 482.340 C 456.712 476.869, 471.404 467.928, 483.127 455.696 C 493.449 444.925, 505.439 424.790, 509.742 411 C 514.698 395.120, 514.500 400.472, 514.500 282.500 L 514.500 171.500 512.193 162 C 506.714 139.433, 498.476 125.224, 480.597 107.500 C 467.718 94.734, 455.158 86.435, 442.531 82.351 C 435.058 79.933, 432.625 79.697, 407.500 78.942 C 380.965 78.144, 200.370 77.929, 194.500 78.687 M 406.754 100.084 C 392.564 103.429, 376.154 117.685, 369.326 132.599 C 366.225 139.373, 364.957 157.335, 366.962 166.081 C 370.840 182.991, 383.090 198.937, 397.216 205.464 C 407.825 210.366, 412.692 211.349, 423.308 210.734 C 435.989 210, 444.339 207.150, 453.082 200.573 C 461.880 193.955, 466.953 187.914, 471.499 178.644 C 475.473 170.541, 477.005 163.692, 476.988 154.114 C 476.944 129.599, 458.629 107.015, 433.540 100.539 C 427.119 98.881, 412.882 98.639, 406.754 100.084 M 415.441 123.425 C 413.794 124.633, 413.535 125.914, 413.732 131.875 L 413.964 138.901 408.232 139.201 L 402.500 139.500 402.500 145.500 L 402.500 151.500 408.703 151.797 L 414.907 152.093 415.203 158.297 L 415.500 164.500 419.824 164.811 C 426.009 165.256, 427.299 163.815, 426.807 157.010 L 426.404 151.439 431.952 152.090 C 435.003 152.448, 437.924 152.353, 438.442 151.879 C 439.374 151.026, 439.284 140.959, 438.336 140.006 C 438.066 139.734, 435.292 139.284, 432.172 139.006 L 426.500 138.500 426.667 135 C 426.928 129.550, 426.065 125.208, 424.389 123.532 C 422.466 121.608, 417.989 121.555, 415.441 123.425 M 388.200 130.200 C 387.408 130.992, 387 135.250, 387 142.726 C 387 154.722, 389.339 166.746, 393.127 174.222 C 395.808 179.514, 404.212 185.503, 411.644 187.417 C 424.264 190.668, 434.298 188.457, 442.674 180.580 C 450.384 173.330, 452.921 166.047, 454.191 147.520 C 455.132 133.786, 455.110 133.508, 452.964 131.770 C 450.060 129.418, 446.469 129.531, 443.947 132.053 C 442.179 133.821, 442.005 134.759, 442.697 138.803 C 444.268 147.988, 443.561 160.074, 441.136 165.488 C 436.721 175.346, 432.123 178.078, 419.805 178.158 C 411.844 178.211, 411.778 178.190, 407.815 174.355 C 399.942 166.738, 397.355 157.551, 398.456 141.118 C 399.002 132.969, 398.865 130.530, 397.827 129.872 C 395.844 128.615, 389.571 128.829, 388.200 130.200 M 293.500 141.481 C 275.257 143.566, 266.483 146.257, 249 155.128 C 233.229 163.129, 215.126 177.923, 205.738 190.481 C 198.352 200.361, 194.075 206.933, 190.760 213.500 C 179.456 235.889, 174.937 259.426, 177.079 284.750 C 178.921 306.525, 181.754 317.543, 189.530 333.168 C 207.395 369.065, 239.571 395.140, 277.888 404.773 C 287.403 407.165, 290.360 407.443, 306.500 407.463 C 326.240 407.487, 333.448 406.347, 348.500 400.822 C 365.282 394.661, 378.961 385.863, 393.435 371.923 C 405.400 360.398, 413.669 349.222, 421.371 334.166 C 437.012 303.587, 439.875 274.805, 431.012 237.236 L 428.827 227.972 419.663 228.598 C 405.761 229.547, 394.201 225.920, 379.493 215.995 C 368.423 208.526, 358.866 196.275, 354.035 183.365 C 351.067 175.431, 348 159.105, 348 151.235 L 348 144.285 339.750 142.567 C 328.730 140.272, 308.274 139.792, 293.500 141.481 M 286.500 193.417 C 284.850 194.154, 282.302 196.049, 280.838 197.628 C 278.175 200.500, 278.175 200.502, 277.662 220.959 C 277.211 238.997, 276.941 241.570, 275.384 242.709 C 274.074 243.666, 268.224 244, 252.759 244 C 229.993 244, 228.990 244.205, 223.500 249.974 L 220.500 253.126 220.188 271.618 C 219.896 288.848, 220.022 290.414, 222.023 294.548 C 226.084 302.937, 226.805 303.138, 252.062 302.921 C 271.528 302.754, 274.359 302.930, 275.830 304.400 C 277.250 305.820, 277.575 309.240, 278 327.285 C 278.728 358.195, 278.549 358, 306.253 358 C 322.704 358, 323.894 357.871, 327.010 355.750 C 334.309 350.783, 334.466 350.197, 334.808 326.712 C 334.986 314.456, 335.540 305.055, 336.124 304.351 C 336.844 303.483, 343.491 303.045, 359.404 302.818 L 381.677 302.500 385.990 299.509 C 392.394 295.068, 393 292.757, 392.998 272.782 C 392.997 253.748, 392.254 250.665, 386.681 246.571 C 384.077 244.659, 382.109 244.462, 360.978 244 C 344.103 243.631, 337.754 243.159, 336.798 242.201 C 335.856 241.259, 335.363 235.362, 335 220.701 C 334.456 198.737, 334.107 197.255, 328.686 193.950 C 325.836 192.212, 323.601 192.011, 307.500 192.043 C 294.689 192.068, 288.635 192.464, 286.500 193.417 M 417.984 400.854 C 409.787 405.216, 407.708 416.344, 413.700 423.789 C 421.982 434.082, 430.591 434.479, 437.384 424.883 C 441.384 419.231, 441.828 413.757, 438.754 408 C 434.256 399.577, 425.832 396.678, 417.984 400.854 M 154 521.211 C 154.275 521.482, 156.065 522.232, 157.977 522.879 C 159.890 523.525, 161.015 523.624, 160.477 523.098 C 159.940 522.572, 158.150 521.821, 156.500 521.430 C 154.850 521.039, 153.725 520.940, 154 521.211 M 191.500 529 C 194.250 529.403, 196.928 529.343, 197.450 528.866 C 197.994 528.370, 195.860 528.057, 192.450 528.134 L 186.500 528.267 191.500 529 M 394.500 529.881 C 392.850 530.912, 389.925 533.498, 388 535.628 L 384.500 539.500 388.049 536.249 C 390.899 533.638, 391.848 533.244, 392.870 534.249 C 393.570 534.937, 394.039 535.050, 393.913 534.500 C 393.786 533.950, 394.035 532.693, 394.465 531.707 C 395.217 529.983, 395.328 529.983, 397.356 531.707 C 399.280 533.342, 399.346 533.346, 398.110 531.750 C 396.931 530.227, 396.998 529.983, 398.628 529.868 C 399.657 529.796, 405.675 529.424, 412 529.041 L 423.500 528.346 410.500 528.177 C 399.337 528.031, 397.076 528.272, 394.500 529.881 M 204.250 529.735 C 206.863 529.941, 211.137 529.941, 213.750 529.735 C 216.363 529.529, 214.225 529.360, 209 529.360 C 203.775 529.360, 201.637 529.529, 204.250 529.735 M 303.264 605.718 C 304.784 605.947, 307.034 605.941, 308.264 605.704 C 309.494 605.467, 308.250 605.279, 305.500 605.286 C 302.750 605.294, 301.744 605.488, 303.264 605.718" stroke="none" fill="#06a690" fill-rule="evenodd"/></svg>